<svg id="svg" version="1.1" width="400" height="400" viewBox="0 0 400 400" xmlns="http://www.w3.org/2000/svg" xmlns:xlink="http://www.w3.org/1999/xlink" ><g id="svgg"><path id="path0" d="M100.000 150.000 L 100.000 200.000 125.000 200.000 L 150.000 200.000 150.000 150.000 L 150.000 100.000 125.000 100.000 L 100.000 100.000 100.000 150.000 M250.000 150.000 L 250.000 200.000 275.000 200.000 L 300.000 200.000 300.000 150.000 L 300.000 100.000 275.000 100.000 L 250.000 100.000 250.000 150.000 M50.000 325.000 L 50.000 350.000 200.000 350.000 L 350.000 350.000 350.000 325.000 L 350.000 300.000 200.000 300.000 L 50.000 300.000 50.000 325.000 " stroke="none" fill="#fcfcfc" fill-rule="evenodd"></path><path id="path1" d="M0.000 200.000 L 0.000 400.000 200.000 400.000 L 400.000 400.000 400.000 200.000 L 400.000 0.000 200.000 0.000 L 0.000 0.000 0.000 200.000 M150.000 150.000 L 150.000 200.000 125.000 200.000 L 100.000 200.000 100.000 150.000 L 100.000 100.000 125.000 100.000 L 150.000 100.000 150.000 150.000 M300.000 150.000 L 300.000 200.000 275.000 200.000 L 250.000 200.000 250.000 150.000 L 250.000 100.000 275.000 100.000 L 300.000 100.000 300.000 150.000 M350.000 325.000 L 350.000 350.000 200.000 350.000 L 50.000 350.000 50.000 325.000 L 50.000 300.000 200.000 300.000 L 350.000 300.000 350.000 325.000 " stroke="none" fill="#040404" fill-rule="evenodd"></path><path id="path2" d="" stroke="none" fill="#c010080" fill-rule="evenodd"></path><path id="path3" d="" stroke="none" fill="#408480" fill-rule="evenodd"></path><path id="path4" d="" stroke="none" fill="#400484" fill-rule="evenodd"></path></g></svg>
